<?xml version="1.0" standalone="no"?>
<!DOCTYPE svg PUBLIC "-//W3C//DTD SVG 20010904//EN"
 "http://www.w3.org/TR/2001/REC-SVG-20010904/DTD/svg10.dtd">
<svg version="1.0" xmlns="http://www.w3.org/2000/svg"
 width="392.000000pt" height="345.000000pt" viewBox="0 0 392.000000 345.000000"
 preserveAspectRatio="xMidYMid meet">
<metadata>
Created by potrace 1.16, written by Peter Selinger 2001-2019
</metadata>
<g transform="translate(0.000000,345.000000) scale(0.100000,-0.100000)"
fill="#000000" stroke="none">
<path d="M102 3408 c-7 -7 -12 -26 -13 -42 0 -26 -2 -28 -8 -11 -15 35 -21
-58 -18 -240 4 -165 11 -221 27 -195 5 7 11 -11 15 -41 10 -81 27 -136 35
-113 5 12 12 -4 23 -49 19 -74 21 -90 9 -83 -4 2 -13 1 -20 -2 -8 -6 -6 -29 9
-87 19 -73 49 -149 34 -85 l-6 25 15 -25 c9 -14 15 -33 16 -42 0 -27 23 -70
30 -58 4 6 17 -16 29 -49 13 -36 28 -61 37 -61 7 0 14 -8 14 -19 0 -10 8 -25
17 -32 14 -12 16 -12 8 0 -5 10 -4 12 4 7 6 -4 17 -22 25 -39 7 -18 32 -52 55
-76 26 -28 41 -54 41 -70 0 -30 21 -75 34 -72 5 2 16 -9 26 -23 9 -15 19 -24
22 -21 2 3 13 -5 24 -17 13 -14 14 -19 4 -14 -8 4 -4 -2 10 -13 37 -32 84 -54
190 -91 99 -34 126 -47 75 -36 -22 5 -26 4 -14 -4 29 -17 126 -39 231 -50 169
-19 270 -40 333 -71 33 -16 52 -27 43 -24 -10 3 -26 7 -35 10 -10 3 37 -22
105 -55 67 -34 120 -65 117 -70 -3 -5 5 -16 17 -25 125 -87 177 -128 173 -134
-2 -5 7 -19 22 -32 14 -13 23 -17 18 -9 -4 8 8 -1 26 -20 19 -19 33 -39 30
-44 -2 -5 1 -6 6 -3 6 4 15 1 21 -6 10 -12 12 -18 12 -37 0 -6 11 -15 25 -20
14 -5 25 -16 25 -24 0 -7 8 -20 17 -27 15 -12 16 -12 8 1 -5 10 -1 8 13 -4 12
-10 20 -21 20 -25 -4 -15 15 -51 26 -51 8 0 19 -14 26 -30 7 -17 17 -33 22
-36 6 -4 4 4 -3 17 -11 22 -11 23 4 10 9 -7 22 -31 29 -54 7 -22 20 -42 29
-44 10 -3 22 -18 28 -34 5 -16 13 -29 17 -29 3 0 3 8 0 18 -5 14 -3 13 9 -3 9
-11 21 -37 27 -59 7 -22 20 -41 30 -44 10 -2 18 -12 18 -21 1 -9 9 -32 20 -51
23 -41 27 -32 5 10 -9 17 -13 30 -10 30 7 0 45 -77 45 -93 0 -7 7 -22 15 -33
15 -19 15 -19 9 1 -3 12 2 8 11 -8 11 -18 22 -27 32 -23 8 3 18 6 23 6 5 0 11
9 15 20 3 11 11 19 18 17 6 -1 19 13 28 30 9 18 19 30 22 27 3 -3 13 8 21 25
9 17 26 39 37 50 13 12 18 24 14 32 -5 8 -4 10 3 5 8 -4 16 3 22 19 6 16 14
23 22 19 8 -5 9 -2 5 10 -4 10 -3 15 3 11 6 -3 15 6 20 20 5 14 14 24 19 21 4
-3 16 10 27 29 10 18 21 32 25 30 3 -3 17 15 30 39 13 25 27 44 32 43 5 -1 18
14 28 33 11 19 24 34 28 33 5 -1 19 18 30 42 12 25 24 45 27 45 3 0 2 -5 -2
-12 -5 -7 -3 -8 5 -3 7 4 19 23 27 42 8 18 18 31 23 29 4 -3 16 12 26 34 10
22 22 37 26 34 5 -3 18 10 29 28 11 18 20 29 20 23 0 -5 9 4 20 20 l20 30 0
-646 c0 -736 -7 -680 86 -678 46 0 177 35 144 38 -20 2 47 31 71 31 11 0 19 5
19 10 0 6 7 10 15 10 34 0 126 75 151 123 8 15 19 25 25 22 5 -4 18 13 29 37
11 24 20 39 20 33 1 -23 25 35 47 115 19 73 22 78 18 35 -4 -45 -3 -47 7 -25
9 18 13 158 16 523 2 273 5 497 8 497 9 0 30 -24 39 -45 7 -18 9 -18 12 -2 3
9 11 17 19 17 10 0 14 12 14 39 0 22 5 43 10 46 16 10 14 916 -2 910 -10 -4
-12 10 -10 55 3 39 0 60 -7 60 -6 0 -11 -12 -11 -27 l-1 -28 -14 25 c-8 14
-14 46 -15 73 0 26 -4 47 -10 47 -5 0 -10 8 -10 18 0 9 -7 26 -15 36 -14 18
-20 18 -107 6 -97 -13 -172 -36 -163 -51 3 -4 -12 -13 -33 -18 -68 -19 -159
-88 -187 -141 -9 -17 -20 -30 -25 -30 -6 0 -18 -13 -29 -30 -10 -16 -20 -28
-23 -25 -3 3 -17 -17 -32 -45 -15 -27 -29 -50 -32 -50 -3 0 -2 6 1 13 4 6 -7
-4 -24 -23 -18 -19 -41 -52 -52 -72 -10 -21 -22 -38 -25 -38 -3 0 -2 6 1 13 4
6 -9 -6 -29 -28 -20 -22 -46 -59 -57 -83 -22 -44 -43 -67 -33 -35 3 10 -4 3
-16 -14 -12 -18 -26 -33 -30 -33 -5 0 -16 -18 -26 -39 -10 -22 -20 -39 -24
-38 -9 3 -90 -82 -90 -94 0 -6 6 -7 13 -4 6 4 5 0 -3 -7 -8 -8 -21 -20 -29
-28 -11 -12 -12 -12 -6 -1 5 9 4 12 -3 7 -6 -4 -19 -22 -28 -41 -9 -19 -20
-33 -24 -30 -10 6 -27 -15 -32 -40 -2 -11 -9 -20 -17 -20 -7 0 -21 -16 -31
-35 -10 -19 -22 -33 -27 -30 -4 3 -18 -15 -30 -39 -12 -24 -25 -46 -29 -50 -4
-3 -4 1 0 9 4 8 -2 4 -13 -10 -11 -14 -21 -29 -21 -33 0 -5 -5 -5 -10 -2 -6 3
-13 -2 -17 -11 -6 -16 -7 -16 -14 2 -4 10 -8 42 -9 69 -1 66 -27 192 -30 150
-2 -26 -4 -23 -15 20 -7 28 -14 68 -15 90 -1 22 -8 56 -15 75 l-14 35 4 -40
c5 -35 4 -37 -6 -15 -6 14 -15 50 -21 80 -5 30 -16 66 -24 80 l-14 25 5 -30 5
-30 -12 33 c-6 17 -15 32 -19 32 -5 0 -6 6 -3 14 3 8 -2 27 -11 43 -15 27 -15
27 -10 3 l6 -25 -15 25 c-9 14 -15 32 -16 41 0 8 -7 24 -16 35 -13 16 -15 16
-10 2 12 -38 -6 -15 -29 39 -14 31 -28 53 -32 50 -3 -4 -15 7 -25 24 -10 16
-22 28 -26 25 -14 -8 -42 29 -42 57 0 8 -4 7 -10 -3 -8 -13 -14 -8 -12 11 2
16 -56 56 -170 119 -45 24 -52 38 -8 15 17 -9 30 -13 30 -11 0 11 -61 37 -71
31 -5 -4 -8 -1 -7 5 3 13 -15 21 -182 80 -63 22 -101 38 -85 36 l30 -5 -31 14
c-35 15 -192 47 -319 64 -44 6 -147 20 -229 31 -83 11 -152 24 -155 28 -6 8
-80 25 -161 37 -134 20 -316 77 -305 95 3 5 0 12 -6 16 -8 5 -9 3 -4 -6 5 -8
3 -11 -6 -8 -8 3 -13 9 -12 14 0 5 -14 20 -32 34 -18 14 -41 36 -50 50 -10 14
-14 17 -11 7 3 -10 2 -16 -3 -13 -5 3 -19 37 -30 76 -21 69 -37 95 -26 43 6
-26 5 -26 -6 -8 -7 11 -15 65 -19 120 -7 122 -26 165 -58 133z m32 -178 c50
-230 234 -360 601 -424 50 -8 160 -25 245 -37 624 -84 935 -224 1160 -521 134
-176 220 -383 275 -662 23 -113 44 -162 63 -141 25 29 147 177 490 591 210
254 405 482 433 507 87 76 235 137 331 137 l38 0 0 -1047 c0 -1163 2 -1114
-67 -1245 -47 -89 -107 -156 -191 -211 -83 -55 -166 -86 -249 -94 l-63 -6 -2
689 -3 689 -185 -230 c-383 -477 -533 -660 -541 -663 -5 -2 -31 32 -58 75
-356 561 -750 925 -1121 1037 -47 14 -139 33 -205 41 -143 19 -297 68 -396
125 -70 41 -189 143 -179 154 3 3 28 -1 55 -9 26 -8 67 -15 89 -15 l41 0 -58
24 c-113 47 -200 127 -301 279 -54 81 -152 274 -144 282 2 3 21 -18 42 -45 84
-110 200 -190 276 -190 l35 0 -51 29 c-147 85 -312 339 -375 577 -32 121 -39
420 -9 388 4 -5 15 -43 24 -84z"/>
<path d="M1146 1499 c-3 -13 -4 -249 -3 -524 3 -384 6 -508 16 -533 9 -23 16
-30 21 -22 5 8 11 0 15 -21 10 -46 36 -99 46 -93 4 2 10 -4 14 -15 3 -11 13
-25 22 -33 12 -9 15 -9 9 0 -4 6 -5 12 -2 12 3 0 13 -14 21 -30 9 -17 20 -28
25 -25 5 3 12 0 16 -6 4 -8 3 -9 -4 -5 -7 4 -12 2 -12 -3 0 -6 4 -11 9 -11 4
0 28 -15 52 -33 105 -80 199 -117 300 -117 39 0 63 5 78 18 l22 17 -3 528 c-3
465 -5 530 -19 540 -8 7 -18 20 -22 31 -5 11 -13 16 -23 12 -8 -3 -13 -2 -10
3 6 9 -54 57 -67 53 -4 -1 -10 5 -13 13 -4 8 -12 15 -20 15 -8 0 -13 5 -12 11
4 15 -92 81 -109 75 -8 -3 -12 -2 -10 2 3 4 -31 25 -74 46 -43 22 -77 41 -75
44 2 2 18 -4 35 -13 17 -8 31 -13 31 -10 0 12 -166 85 -207 91 -38 6 -42 4
-47 -17z m174 -69 c119 -62 240 -142 343 -228 l77 -65 0 -529 0 -528 -38 0
c-169 0 -389 145 -469 310 -62 127 -63 138 -63 647 l0 463 26 -11 c15 -5 71
-32 124 -59z"/>
<path d="M2880 560 c-30 -22 -66 -44 -80 -50 -14 -6 -38 -26 -55 -44 -25 -27
-47 -38 -127 -60 -54 -14 -110 -26 -125 -26 -55 0 -99 -20 -129 -57 -16 -20
-28 -45 -26 -55 2 -12 -6 -21 -25 -29 -29 -11 -63 -42 -63 -57 0 -13 89 -44
162 -57 38 -7 52 -24 42 -50 -4 -9 3 -16 20 -21 14 -3 23 -10 20 -15 -3 -5 7
-10 23 -10 17 -1 21 -3 11 -6 -10 -2 -18 -9 -18 -14 0 -5 113 -9 275 -9 177 0
275 4 275 10 0 6 8 10 18 10 24 0 62 33 62 54 0 9 -4 16 -8 16 -14 0 -30 43
-37 103 -7 55 -25 80 -25 35 0 -13 -4 -30 -10 -38 -8 -12 -10 -12 -16 3 -3 9
-3 24 0 33 7 18 -10 55 -30 67 -20 11 -17 24 6 30 23 6 27 39 7 59 -8 8 -17
51 -21 107 -4 52 -9 98 -12 103 -12 19 -63 4 -114 -32z"/>
<path d="M1907 103 c-13 -12 -7 -39 13 -61 11 -12 20 -26 20 -32 0 -6 30 -10
75 -10 76 0 109 19 38 21 l-38 2 40 7 c22 4 34 8 28 9 -7 0 -13 10 -13 21 0
12 -7 20 -17 20 -10 0 -27 7 -37 15 -20 15 -97 21 -109 8z"/>
</g>
</svg>
